HIERARCHY
ROOT Hips
{
    OFFSET   0.000000   0.000000   0.000000
    CHANNELS 6 Xposition Yposition Zposition Zrotation Xrotation Yrotation
    JOINT Chest
    {
        OFFSET   0.000000   8.007230   0.000000
        CHANNELS 3 Zrotation Xrotation Yrotation
        JOINT Chest2
        {
            OFFSET   0.000000  22.077100   0.000000
            CHANNELS 3 Zrotation Xrotation Yrotation
            JOINT Neck
            {
                OFFSET   0.000000  23.255100   0.000000
                CHANNELS 3 Zrotation Xrotation Yrotation
                JOINT Head
                {
                    OFFSET   0.000000  14.370100   1.956600
                    CHANNELS 3 Zrotation Xrotation Yrotation
                    End Site
                    {
                        OFFSET   0.000000  19.566000   0.000000
                    }
                }
            }
            JOINT LeftCollar
            {
                OFFSET   3.911900  19.017000  -0.467063
                CHANNELS 3 Zrotation Xrotation Yrotation
                JOINT LeftShoulder
                {
                    OFFSET  10.383700   0.000000   0.000000
                    CHANNELS 3 Zrotation Xrotation Yrotation
                    JOINT LeftElbow
                    {
                        OFFSET  26.662100   0.001193   0.000980
                        CHANNELS 3 Zrotation Xrotation Yrotation
                        JOINT LeftWrist
                        {
                            OFFSET  28.869000  -0.000059  -0.000082
                            CHANNELS 3 Zrotation Xrotation Yrotation
                            JOINT LeftFinger0
                            {
                                OFFSET   2.044650  -2.323450   3.252850
                                CHANNELS 3 Zrotation Xrotation Yrotation
                                JOINT LeftFinger01
                                {
                                    OFFSET   3.088130   0.000000   0.000000
                                    CHANNELS 3 Zrotation Xrotation Yrotation
                                    JOINT LeftFinger02
                                    {
                                        OFFSET   2.639460   0.000000   0.000000
                                        CHANNELS 3 Zrotation Xrotation Yrotation
                                        End Site
                                        {
                                            OFFSET   2.582190   0.000000   0.000000
                                        }
                                    }
                                }
                            }
                            JOINT LeftFinger1
                            {
                                OFFSET   8.364480   0.000000   3.252850
                                CHANNELS 3 Zrotation Xrotation Yrotation
                                JOINT LeftFinger11
                                {
                                    OFFSET   4.646930   0.000000   0.000000
                                    CHANNELS 3 Zrotation Xrotation Yrotation
                                    JOINT LeftFinger12
                                    {
                                        OFFSET   2.323470   0.000000   0.000000
                                        CHANNELS 3 Zrotation Xrotation Yrotation
                                        End Site
                                        {
                                            OFFSET   2.273050   0.000000   0.000000
                                        }
                                    }
                                }
                            }
                            JOINT LeftFinger2
                            {
                                OFFSET   8.364490   0.000016   1.078090
                                CHANNELS 3 Zrotation Xrotation Yrotation
                                JOINT LeftFinger21
                                {
                                    OFFSET   5.111610   0.000000   0.000000
                                    CHANNELS 3 Zrotation Xrotation Yrotation
                                    JOINT LeftFinger22
                                    {
                                        OFFSET   2.788150   0.000016   0.000000
                                        CHANNELS 3 Zrotation Xrotation Yrotation
                                        End Site
                                        {
                                            OFFSET   2.727660   0.000000   0.000000
                                        }
                                    }
                                }
                            }
                            JOINT LeftFinger3
                            {
                                OFFSET   7.899780   0.000015  -1.078090
                                CHANNELS 3 Zrotation Xrotation Yrotation
                                JOINT LeftFinger31
                                {
                                    OFFSET   4.646930   0.000000   0.000000
                                    CHANNELS 3 Zrotation Xrotation Yrotation
                                    JOINT LeftFinger32
                                    {
                                        OFFSET   2.323470   0.000000   0.000000
                                        CHANNELS 3 Zrotation Xrotation Yrotation
                                        End Site
                                        {
                                            OFFSET   2.273050   0.000000   0.000000
                                        }
                                    }
                                }
                            }
                            JOINT LeftFinger4
                            {
                                OFFSET   7.435090   0.000000  -3.252850
                                CHANNELS 3 Zrotation Xrotation Yrotation
                                JOINT LeftFinger41
                                {
                                    OFFSET   3.717550   0.000000   0.000000
                                    CHANNELS 3 Zrotation Xrotation Yrotation
                                    JOINT LeftFinger42
                                    {
                                        OFFSET   1.858770   0.000000   0.000000
                                        CHANNELS 3 Zrotation Xrotation Yrotation
                                        End Site
                                        {
                                            OFFSET   1.818440   0.000000   0.000000
                                        }
                                    }
                                }
                            }
                        }
                    }
                }
            }
            JOINT RightCollar
            {
                OFFSET  -3.911910  19.017000  -0.467062
                CHANNELS 3 Zrotation Xrotation Yrotation
                JOINT RightShoulder
                {
                    OFFSET -10.383700   0.000014   0.000000
                    CHANNELS 3 Zrotation Xrotation Yrotation
                    JOINT RightElbow
                    {
                        OFFSET -26.662100   0.001225   0.001091
                        CHANNELS 3 Zrotation Xrotation Yrotation
                        JOINT RightWrist
                        {
                            OFFSET -28.869000  -0.000020  -0.000085
                            CHANNELS 3 Zrotation Xrotation Yrotation
                            JOINT RightFinger0
                            {
                                OFFSET  -2.044650  -2.323490   3.252850
                                CHANNELS 3 Zrotation Xrotation Yrotation
                                JOINT RightFinger01
                                {
                                    OFFSET  -3.088130   0.000000   0.000000
                                    CHANNELS 3 Zrotation Xrotation Yrotation
                                    JOINT RightFinger02
                                    {
                                        OFFSET  -2.639460   0.000000   0.000000
                                        CHANNELS 3 Zrotation Xrotation Yrotation
                                        End Site
                                        {
                                            OFFSET  -2.582190   0.000000   0.000000
                                        }
                                    }
                                }
                            }
                            JOINT RightFinger1
                            {
                                OFFSET  -8.364480   0.000000   3.252850
                                CHANNELS 3 Zrotation Xrotation Yrotation
                                JOINT RightFinger11
                                {
                                    OFFSET  -4.646930   0.000000   0.000000
                                    CHANNELS 3 Zrotation Xrotation Yrotation
                                    JOINT RightFinger12
                                    {
                                        OFFSET  -2.323470   0.000000   0.000000
                                        CHANNELS 3 Zrotation Xrotation Yrotation
                                        End Site
                                        {
                                            OFFSET  -2.273050   0.000000   0.000000
                                        }
                                    }
                                }
                            }
                            JOINT RightFinger2
                            {
                                OFFSET  -8.364480   0.000000   1.078090
                                CHANNELS 3 Zrotation Xrotation Yrotation
                                JOINT RightFinger21
                                {
                                    OFFSET  -5.111620   0.000000   0.000000
                                    CHANNELS 3 Zrotation Xrotation Yrotation
                                    JOINT RightFinger22
                                    {
                                        OFFSET  -2.788160   0.000000   0.000000
                                        CHANNELS 3 Zrotation Xrotation Yrotation
                                        End Site
                                        {
                                            OFFSET  -2.727660   0.000000   0.000000
                                        }
                                    }
                                }
                            }
                            JOINT RightFinger3
                            {
                                OFFSET  -7.899780   0.000000  -1.078090
                                CHANNELS 3 Zrotation Xrotation Yrotation
                                JOINT RightFinger31
                                {
                                    OFFSET  -4.646930   0.000000   0.000000
                                    CHANNELS 3 Zrotation Xrotation Yrotation
                                    JOINT RightFinger32
                                    {
                                        OFFSET  -2.323470   0.000000   0.000000
                                        CHANNELS 3 Zrotation Xrotation Yrotation
                                        End Site
                                        {
                                            OFFSET  -2.273050   0.000000   0.000000
                                        }
                                    }
                                }
                            }
                            JOINT RightFinger4
                            {
                                OFFSET  -7.435090   0.000000  -3.252850
                                CHANNELS 3 Zrotation Xrotation Yrotation
                                JOINT RightFinger41
                                {
                                    OFFSET  -3.717550   0.000000   0.000000
                                    CHANNELS 3 Zrotation Xrotation Yrotation
                                    JOINT RightFinger42
                                    {
                                        OFFSET  -1.858760   0.000000   0.000000
                                        CHANNELS 3 Zrotation Xrotation Yrotation
                                        End Site
                                        {
                                            OFFSET  -1.818440   0.000000   0.000000
                                        }
                                    }
                                }
                            }
                        }
                    }
                }
            }
        }
    }
    JOINT LeftHip
    {
        OFFSET   9.783030   0.000000   0.000000
        CHANNELS 3 Zrotation Xrotation Yrotation
        JOINT LeftKnee
        {
            OFFSET   0.000063 -41.789100   0.000608
            CHANNELS 3 Zrotation Xrotation Yrotation
            JOINT LeftAnkle
            {
                OFFSET   0.000048 -41.133200  -0.000184
                CHANNELS 3 Zrotation Xrotation Yrotation
                JOINT LeftToe
                {
                    OFFSET   0.000000  -6.358960  14.674500
                    CHANNELS 3 Zrotation Xrotation Yrotation
                    End Site
                    {
                        OFFSET   0.000000   0.000000   3.913200
                    }
                }
            }
        }
    }
    JOINT RightHip
    {
        OFFSET  -9.783030   0.000000   0.000000
        CHANNELS 3 Zrotation Xrotation Yrotation
        JOINT RightKnee
        {
            OFFSET   0.000071 -41.789100   0.001239
            CHANNELS 3 Zrotation Xrotation Yrotation
            JOINT RightAnkle
            {
                OFFSET   0.000037 -41.133200  -0.000166
                CHANNELS 3 Zrotation Xrotation Yrotation
                JOINT RightToe
                {
                    OFFSET   0.000000  -6.358960  14.674500
                    CHANNELS 3 Zrotation Xrotation Yrotation
                    End Site
                    {
                        OFFSET   0.000000   0.000000   3.913200
                    }
                }
            }
        }
    }
}
MOTION
Frames: 5
Frame Time:   0.016667
  0.785022  89.571300  -0.097877  -3.001170  -6.260310  -4.384560   0.731311   4.463410   0.452444   1.433700   8.932180   0.851401   0.474278  -0.379668  -0.005354   0.776210  -0.766342   0.752729  -4.494810  -0.969483   0.469715 -74.724400  23.485200  -1.528240  -2.289640  -7.606300 -18.107700  14.195300 -12.911200   6.604540  41.990800  35.462900 -67.221900 -29.072400  -0.005298  -0.002870  -9.526670   0.002420  -0.036612 -26.001500   3.890970  -7.920150 -21.494400   0.017069  -0.002337 -15.046100   0.012001   0.001392 -28.039700  -0.060799   0.114151 -32.281000  -0.004334   0.007774 -21.499100   0.017741   0.013551 -26.578800  -0.057863   0.115663 -26.578900   0.001456   0.001439 -17.701600  -0.001942   0.004315 -27.524600  -0.059768   0.114696 -41.287000  -0.004522   0.006029 -27.497100   0.004483   0.004977  10.179500   0.974411   6.479910  69.741100   8.545910  -5.135930  -2.872380  -8.501890  19.709900  -9.113590  -3.798490   0.920739 -44.168800  40.241300  78.787500  27.848200  -0.008702  -0.007195   8.924080   0.004458  -0.003871  41.951600   6.823600   7.529690  34.691900  -0.009061   0.000768  24.775100   0.001204   0.000792  34.139000   0.592344   0.873538  51.215300   0.004319  -0.000476  34.109400   0.007310   0.000578  29.674400  -0.522278  -0.916491  44.517800  -0.003901  -0.000403  29.648800   0.006355  -0.000000  31.652400  -0.553607  -0.897918  47.485100   0.005067   0.013135  31.625000  -0.000284  -0.004518   1.625400   9.080760   4.357080   0.638287   0.379470   6.638050  -0.894157  -4.677810   3.204440  -0.000000   0.000000   0.000000   2.865810   8.270140  -5.397790   0.049988   0.983004  -3.909220  -1.454480  -3.442230   2.328870   0.000000   0.000000   0.000000
  0.785015  89.571200  -0.102363  -3.000760  -6.267760  -4.375910   0.731255   4.464720   0.452432   1.433580   8.934780   0.851377   0.469704  -0.376714  -0.005354   0.770060  -0.762013   0.752686  -4.495270  -0.969918   0.466241 -74.725200  23.496300  -1.525430  -2.289410  -7.613210 -18.090900  14.193400 -12.918100   6.607480  41.985700  35.453200 -67.230800 -29.070700  -0.005308  -0.002901  -9.526760   0.002419  -0.041459 -26.017300   3.900030  -7.933300 -21.508000   0.025965  -0.013078 -15.055600   0.020048  -0.004780 -28.039800  -0.056619   0.106294 -32.299700  -0.004334  -0.006217 -21.511600   0.036136   0.009475 -26.591800  -0.053906   0.107698 -26.592000   0.001458  -0.007931 -17.710300  -0.001941   0.000196 -27.537200  -0.055679   0.106796 -41.305900  -0.004525   0.001032 -27.509700   0.015026   0.005220  10.179300   0.974423   6.480170  69.743400   8.539720  -5.152370  -2.870590  -8.471810  19.695400  -9.114850  -3.780980   0.929430 -44.195300  40.240200  78.784500  27.828200  -0.008697  -0.007186   8.914120   0.004454  -0.003844  41.935000   6.841930   7.553940  34.680500  -0.009041   0.000719  24.764500   0.001206   0.000748  34.130300   0.609317   0.898856  51.202600   0.004335  -0.000489  34.100900   0.007320   0.000538  29.667700  -0.508185  -0.892014  44.507400  -0.003871  -0.000424  29.641900   0.006360   0.000000  31.640100  -0.538594  -0.873995  47.466200   0.005094   0.013170  31.612400  -0.000287  -0.004532   1.625860   9.075210   4.357000   0.636849   0.406633   6.637660  -0.894819  -4.687090   3.204350   0.000000   0.000000   0.000000   2.866760   8.281700  -5.397880   0.049468   0.972929  -3.914800  -1.454690  -3.437180   2.328860   0.000000   0.000000   0.000000
  0.784966  89.571200  -0.109593  -3.000760  -6.281170  -4.367310   0.731111   4.467480   0.452344   1.433270   8.940270   0.851178   0.461076  -0.370601  -0.005353   0.757615  -0.751732   0.752642  -4.496510  -0.970353   0.462766 -74.727800  23.507500  -1.518240  -2.288660  -7.620290 -18.070000  14.187000 -12.924900   6.610420  41.969700  35.444200 -67.241000 -29.067000  -0.005318  -0.002932  -9.526890   0.002414  -0.046307 -26.031900   3.913270  -7.954320 -21.521600   0.034861  -0.028802 -15.065100   0.028095  -0.014287 -28.039900  -0.050671   0.095116 -32.318400  -0.004333  -0.026561 -21.524100   0.054531   0.001886 -26.604900  -0.048263   0.096366 -26.605000   0.001465  -0.022290 -17.718900  -0.001941  -0.006715 -27.549800  -0.049847   0.095557 -41.324800  -0.004528  -0.007634 -27.522300   0.030556   0.005462  10.179100   0.974435   6.480520  69.748300   8.533540  -5.168800  -2.864260  -8.442370  19.668400  -9.124750  -3.763450   0.949128 -44.217400  40.232800  78.763500  27.808300  -0.008688  -0.007169   8.904150   0.004451  -0.003790  41.918400   6.860260   7.578180  34.669100  -0.008991   0.000606  24.753900   0.001213   0.000647  34.121500   0.626289   0.924174  51.189800   0.004376  -0.000516  34.092300   0.007344   0.000446  29.661000  -0.494092  -0.867537  44.497000  -0.003804  -0.000469  29.635000   0.006374   0.000000  31.627700  -0.523580  -0.850072  47.447300   0.005162   0.013260  31.599900  -0.000291  -0.004566   1.626550   9.069660   4.356850   0.635412   0.433796   6.637280  -0.896293  -4.696360   3.204260  -0.000000   0.000000   0.000000   2.868270   8.300750  -5.397980   0.049107   0.958067  -3.923390  -1.455040  -3.429300   2.328870   0.000000   0.000000   0.000000
  0.782144  89.571100  -0.114681  -3.001680  -6.294250  -4.367570   0.730900   4.471140   0.451016   1.432900   8.947540   0.848479   0.451816  -0.363520  -0.005350   0.742584  -0.737581   0.756468  -4.498370  -0.967934   0.472201 -74.735200  23.506400  -1.506460  -2.293720  -7.619930 -18.065300  14.167700 -12.919900   6.592180  41.969400  35.458400 -67.264700 -29.061000  -0.005311  -0.002921  -9.526950   0.002397  -0.037352 -26.028000   3.920920  -7.972690 -21.519500   0.033168  -0.037992 -15.063700   0.027667  -0.020588 -28.039900  -0.047780   0.089687 -32.311300  -0.004332  -0.037983 -21.519400   0.053500  -0.008093 -26.603500  -0.045924   0.090869 -26.603500   0.001478  -0.032875 -17.717800  -0.001938  -0.013770 -27.546900  -0.047428   0.090106 -41.320500  -0.004526  -0.017314 -27.519400   0.039958   0.005401  10.179000   0.974428   6.480670  69.753900   8.536470  -5.168460  -2.857160  -8.446100  19.639500  -9.161500  -3.766200   0.972971 -44.174500  40.202800  78.708100  27.835700  -0.008676  -0.007150   8.917890   0.004452  -0.003728  41.925700   6.850050   7.565190  34.673800  -0.008913   0.000438  24.758300   0.001225   0.000505  34.122400   0.610765   0.901221  51.190700   0.004439  -0.000554  34.093000   0.007381   0.000315  29.671600  -0.498775  -0.875380  44.513100  -0.003708  -0.000530  29.645700   0.006398  -0.000040  31.635100  -0.528464  -0.857778  47.458600   0.005268   0.013399  31.607400  -0.000294  -0.004620   1.628660   9.086210   4.353570   0.634319   0.419874   6.638550  -0.898552  -4.690000   3.206370  -0.000000   0.000000   0.000000   2.869300   8.315820  -5.397980   0.050772   0.950804  -3.929910  -1.458650  -3.424780   2.334010   0.000000   0.000000   0.000000
  0.777098  89.571000  -0.119824  -3.002770  -6.308120  -4.368770   0.730817   4.475000   0.449099   1.432900   8.955230   0.844600   0.441836  -0.354384  -0.005348   0.726006  -0.718730   0.764874  -4.500990  -0.961581   0.485672 -74.744900  23.498500  -1.493250  -2.304070  -7.616050 -18.064400  14.150100 -12.907200   6.565480  41.995100  35.478200 -67.295500 -29.055600  -0.005286  -0.002892  -9.526960   0.002374  -0.024321 -26.022200   3.924400  -7.983180 -21.514900   0.029015  -0.042199 -15.060500   0.025423  -0.025296 -28.040000  -0.046656   0.087580 -32.296600  -0.004331  -0.043051 -21.509600   0.048224  -0.014559 -26.599500  -0.044371   0.088738 -26.599500   0.001497  -0.038472 -17.715200  -0.001933  -0.018032 -27.540700  -0.045820   0.087992 -41.311100  -0.004524  -0.023324 -27.513200   0.044374   0.004977  10.179000   0.974377   6.480720  69.772100   8.547100  -5.165960  -2.852070  -8.463350  19.608000  -9.217290  -3.768940   1.008770 -44.111500  40.156900  78.635600  27.874200  -0.008663  -0.007128   8.937120   0.004453  -0.003657  41.932900   6.839830   7.552190  34.678500  -0.008817   0.000258  24.762700   0.001238   0.000339  34.123200   0.595228   0.878267  51.191600   0.004516  -0.000594  34.093600   0.007428   0.000168  29.682200  -0.503458  -0.883223  44.529200  -0.003598  -0.000596  29.656400   0.006426  -0.000099  31.642500  -0.533347  -0.865484  47.469900   0.005399   0.013570  31.614900  -0.000298  -0.004688   1.631820   9.112940   4.347970   0.633155   0.395654   6.642460  -0.900141  -4.677180   3.211140   0.000000   0.000000   0.000000   2.870390   8.330110  -5.397960   0.052817   0.944708  -3.933400  -1.463960  -3.419480   2.343200   0.000000   0.000000   0.000000
